<svg xmlns="http://www.w3.org/2000/svg" viewBox="0 0 157.36 149.43"><defs><style>.cls-1{fill:#8c78b4;}</style></defs><g id="图层_2" data-name="图层 2"><g id="图层_1-2" data-name="图层 1"><g id="news"><path class="cls-1" d="M17.67,142.89A462.37,462.37,0,0,1,36,91.15L35,93.3A463.65,463.65,0,0,1,66.42,32.07q2.46-4,5-8c1.71-2.67,3.36-5.45,5.29-8L75.31,17.9a10.15,10.15,0,0,1,1.59-1.62l-1.82,1.41a7.59,7.59,0,0,1,.94-.57L73.87,18a5.71,5.71,0,0,1,1.28-.38L72.76,18a5,5,0,0,1,1.09,0l-2.39-.33a6.1,6.1,0,0,1,1,.26L70.33,17a6,6,0,0,1,1.15.66l-1.82-1.41a8,8,0,0,1,1.2,1.2l-1.4-1.82A12.8,12.8,0,0,1,71,18.33l-.91-2.15a18.11,18.11,0,0,1,1.21,4.39L71,18.18a154.43,154.43,0,0,1,.74,26.07c-.34,8.93-1.14,17.83-2,26.72s-1.81,17.65-2.44,26.51-1.37,18,.41,26.85C69.63,134,76,142,85.35,145.34c5.15,1.84,10.6,1.11,15.48-1.09,3.82-1.72,7-4.89,9.49-8.16,10.27-13.17,18.47-27.84,25.52-42.95C143,77.79,149,62,154.92,46.1Q156,43.28,157,40.45a9,9,0,0,0-.91-6.93,9,9,0,0,0-12.31-3.23,10.11,10.11,0,0,0-4.14,5.38C135,48.38,130.25,61.08,125,73.57l.91-2.15c-6.23,14.73-13.26,29.18-21.94,42.64-2.45,3.79-5,7.54-7.76,11.13l1.4-1.83a28,28,0,0,1-4.87,5.1l1.82-1.41a15,15,0,0,1-3,1.74l2.15-.91a12.09,12.09,0,0,1-2.83.76l2.39-.32a12.48,12.48,0,0,1-2.8,0l2.39.32a14.24,14.24,0,0,1-3.4-.91l2.15.9a17.17,17.17,0,0,1-3.74-2.2l1.83,1.4a18.36,18.36,0,0,1-3.1-3.13l1.4,1.82a20.47,20.47,0,0,1-2.31-4l.91,2.15a29.55,29.55,0,0,1-2-7.45L85,119.6a77.9,77.9,0,0,1-.23-12.87c.2-4.8.53-9.58.93-14.36.78-9.41,1.83-18.8,2.69-28.21s1.54-18.91,1.54-28.4c0-4.69-.17-9.39-.56-14.06-.41-4.89-1-9.57-3.5-13.9a17,17,0,0,0-5.62-5.93A13.6,13.6,0,0,0,70.37.29C64.31,1.43,61,7,58,11.75Q50.84,22.7,44.35,34A463.63,463.63,0,0,0,20.91,80.9,480.33,480.33,0,0,0,2.16,131.85Q1.21,135,.31,138.11c-1.3,4.52,1.59,10,6.29,11.07a9.18,9.18,0,0,0,11.07-6.29Z"/></g></g></g></svg>