<svg xmlns="http://www.w3.org/2000/svg" viewBox="0 0 183.24 173.69"><defs><style>.cls-1{fill:#8c78b4;}</style></defs><g id="图层_2" data-name="图层 2"><g id="图层_1-2" data-name="图层 1"><g id="works"><path class="cls-1" d="M6.53,75.32c8.13,2.09,16-1,22.64-5.62,5.75-4,11.3-8.31,16.93-12.48L80.58,31.75l19.64-14.51L87.91,4.92q-14.43,30.72-27,62.25-12.28,30.63-22.76,62c-2.85,8.51-6.58,17.53-5.58,26.71.56,5.11,2.1,10.5,6.23,13.93a17.45,17.45,0,0,0,8.07,4.07,20.53,20.53,0,0,0,12.48-1.79c5-2.23,9.08-6.39,13-10.1q5.46-5.13,10.72-10.46,10.67-10.81,20.5-22.43a416.17,416.17,0,0,0,36.8-50.63q2-3.18,3.86-6.41l-16.45-6.93a179.58,179.58,0,0,0-6.42,49.08,9.18,9.18,0,0,0,9,9,22.64,22.64,0,0,0,13.91-4.33,51.39,51.39,0,0,0,10.64-10.9c5.91-7.76,11.39-15.87,17.05-23.81L182,70a9.05,9.05,0,0,0,.91-6.94,9,9,0,0,0-11.07-6.28,10.26,10.26,0,0,0-5.38,4.13l-14,19.59c-4.45,6.22-8.74,12.59-13.39,18.65l1.41-1.82a39.21,39.21,0,0,1-6.75,7L135.6,103a20,20,0,0,1-4,2.37l2.15-.91a14.33,14.33,0,0,1-3.34.95l2.4-.32a15,15,0,0,1-2.5.11l9,9a171,171,0,0,1,1.48-24l-.33,2.39a173.23,173.23,0,0,1,4.63-22.65,9,9,0,0,0-16.45-6.93,405,405,0,0,1-27.9,41.18l1.41-1.83A403.12,403.12,0,0,1,64.7,144.35,152,152,0,0,1,53.19,155L55,153.56a23.2,23.2,0,0,1-5,3l2.15-.91a12.83,12.83,0,0,1-3,.82l2.39-.32a10.08,10.08,0,0,1-2.33,0l2.39.33a10.6,10.6,0,0,1-2.26-.65l2.15.91a10.2,10.2,0,0,1-1.63-.95l1.82,1.41a8.89,8.89,0,0,1-1.48-1.46l1.41,1.82a10.35,10.35,0,0,1-1.32-2.28l.91,2.15a15,15,0,0,1-1-3.85l.32,2.4a28,28,0,0,1,.11-6.85l-.32,2.39c.81-5.82,3-11.39,4.9-16.94q3.36-10.09,6.93-20.12,7-19.84,14.81-39.41,4.42-11.11,9.07-22.13l-.91,2.15Q93.9,34.37,103.45,14a9.77,9.77,0,0,0,1.07-5.74A8.58,8.58,0,0,0,102,3.1a10.72,10.72,0,0,0-4-2.31,8.94,8.94,0,0,0-6.93.9l-60.94,45c-2.78,2.06-5.56,4.13-8.36,6.18a43.86,43.86,0,0,1-8.17,5l2.15-.9a19.07,19.07,0,0,1-4.39,1.28l2.39-.32a14.21,14.21,0,0,1-3.26,0l2.4.32A14.87,14.87,0,0,1,11.32,58C6.76,56.8,1.34,59.45.25,64.25s1.4,9.82,6.28,11.07Z" transform="translate(0 -0.46)"/></g></g></g></svg>